<svg xmlns="http://www.w3.org/2000/svg" width="692" height="692" preserveAspectRatio="xMidYMid meet" version="1.0" viewBox="0 0 519 519"><metadata>Created by potrace 1.11, written by Peter Selinger 2001-2013</metadata><g fill="#000" stroke="none"><path d="M0 3738 l0 -1453 777 777 c813 812 799 798 878 798 57 -1 110 -49 643 -582 536 -537 548 -548 586 -548 38 0 48 9 285 243 225 223 250 245 294 256 49 12 82 8 132 -16 17 -9 289 -273 605 -589 l576 -574 202 0 202 0 0 1570 0 1570 -2590 0 -2590 0 0 -1452z" transform="translate(0.000000,519.000000) scale(0.100000,-0.100000)"/><path d="M803 2958 l-803 -803 0 -397 0 -398 182 0 182 0 276 274 c151 151 285 279 297 285 32 16 119 13 156 -5 18 -9 71 -54 118 -100 128 -124 102 -134 394 155 132 131 254 246 272 255 40 20 103 20 151 1 26 -11 208 -186 589 -567 523 -522 554 -552 588 -552 33 0 59 23 438 401 418 417 425 423 505 423 62 0 100 -34 565 -498 l467 -467 0 493 0 492 -192 0 c-107 0 -211 5 -233 11 -34 9 -124 95 -625 595 -546 544 -588 584 -620 584 -31 0 -54 -20 -275 -240 -242 -241 -279 -270 -345 -270 -71 0 -96 22 -655 580 -542 541 -551 550 -590 550 -39 0 -49 -10 -842 -802z" transform="translate(0.000000,519.000000) scale(0.100000,-0.100000)"/><path d="M1935 2142 c-11 -2 -130 -113 -265 -246 -224 -222 -249 -244 -292 -255 -85 -20 -128 -2 -233 100 -95 92 -127 109 -167 88 -12 -7 -142 -133 -288 -280 -224 -227 -271 -270 -305 -279 -22 -5 -118 -10 -212 -10 l-173 0 0 -630 0 -630 2590 0 2590 0 0 417 0 417 -498 498 c-488 489 -498 498 -537 498 -38 0 -48 -9 -440 -399 -220 -220 -413 -405 -428 -410 -36 -14 -108 -14 -144 0 -15 5 -275 257 -578 559 -302 302 -561 553 -575 558 -14 4 -34 7 -45 4z" transform="translate(0.000000,519.000000) scale(0.100000,-0.100000)"/></g></svg>